<?xml version="1.0" encoding="UTF-8"?>
<svg width="45px" height="45px" viewBox="0 0 45 45" version="1.1" xmlns="http://www.w3.org/2000/svg" xmlns:xlink="http://www.w3.org/1999/xlink">
    <!-- Generator: Sketch 51.1 (57501) - http://www.bohemiancoding.com/sketch -->
    <title>Shape</title>
    <desc>Created with Sketch.</desc>
    <defs></defs>
    <g id="Page-1" stroke="none" stroke-width="1" fill="none" fill-rule="evenodd">
        <g id="Artboard" transform="translate(-334.000000, -236.000000)" fill="#000000" fill-rule="nonzero">
            <path d="M378.410904,263.496306 L375.957555,261.212786 C375.319546,260.618842 374.941331,259.783004 374.915168,258.912742 L374.910578,258.871433 L374.91425,258.732815 C374.936282,257.821243 375.343873,256.95144 376.032371,256.345561 L378.554571,254.138694 C378.950687,253.791232 379.087468,253.229876 378.892853,252.740124 L376.738771,247.306036 C376.615759,246.996671 376.380752,246.752942 376.074599,246.62075 C375.901098,246.545934 375.724383,246.512886 375.533898,246.52023 L372.188255,246.63911 C371.705847,246.657011 371.214259,246.563835 370.766276,246.370137 C370.366488,246.197553 370.016272,245.956579 369.720677,245.651804 L369.652745,245.5802 C369.050538,244.924749 368.739337,244.037963 368.797171,243.147046 L369.019785,239.802321 C369.055587,239.275849 368.754025,238.781966 368.27024,238.572663 L362.904542,236.2538 C362.421216,236.044955 361.85573,236.163377 361.496792,236.548936 L359.214191,238.999991 C358.583526,239.678391 357.690773,240.05936 356.762218,240.045131 C356.331218,240.038246 355.911234,239.947824 355.5142,239.776158 C355.06943,239.584296 354.66597,239.289619 354.346966,238.926551 L352.139181,236.403893 C352.016169,236.263898 351.867453,236.154656 351.696247,236.081216 C351.390094,235.949025 351.050894,235.943517 350.741988,236.06561 L345.306522,238.221069 C344.817229,238.414767 344.501438,238.898552 344.520257,239.425024 L344.640056,242.769749 C344.674022,243.672141 344.328854,244.558009 343.690387,245.201985 L343.646323,245.246507 C342.983528,245.889106 342.072874,246.223716 341.147533,246.163128 L337.80143,245.940973 C337.276794,245.90563 336.78337,246.207192 336.574067,246.690977 L334.255204,252.055757 C334.045901,252.539542 334.164781,253.105029 334.5508,253.462589 L337.00369,255.747486 C337.652715,256.351528 338.032307,257.205725 338.047454,258.1251 L338.043782,258.297225 C338.002931,259.185847 337.59534,260.029946 336.927955,260.612875 L334.405756,262.819742 C334.010099,263.167204 333.873776,263.729019 334.067933,264.218311 L336.222474,269.653318 C336.345026,269.963142 336.580493,270.205953 336.887104,270.338604 C337.057852,270.412502 337.239615,270.446927 337.425969,270.439583 L340.772071,270.319785 C341.253102,270.301425 341.745608,270.395978 342.193591,270.589676 C342.587412,270.759506 342.930744,270.995431 343.267649,271.337385 L343.3544,271.431939 C343.925853,272.079128 344.221449,272.947554 344.164074,273.812767 L343.940541,277.15841 C343.906116,277.683964 344.208138,278.176929 344.691464,278.385773 L350.056702,280.705554 C350.540028,280.914398 351.105515,280.795977 351.463534,280.411336 L353.73512,277.972215 C354.350179,277.311716 355.219523,276.926157 356.150832,276.914223 L356.216009,276.916059 C356.639665,276.921108 357.0546,277.011071 357.44934,277.18136 C357.88952,277.371386 358.287013,277.660096 358.601886,278.018574 L360.822064,280.555461 C360.945994,280.695915 361.095168,280.805157 361.264998,280.878597 C361.570232,281.010788 361.909432,281.015837 362.219716,280.893285 L367.655181,278.738284 C368.144474,278.545046 368.460725,278.061261 368.441447,277.536166 L368.321189,274.182261 C368.291354,273.315671 368.611276,272.461474 369.20109,271.83035 L369.228171,271.795925 L369.337872,271.691732 C369.99883,271.063363 370.901222,270.737015 371.816466,270.797602 L375.159355,271.01884 C375.68445,271.053724 376.178333,270.75308 376.387637,270.268836 L378.706499,264.904056 C378.914885,264.420271 378.796463,263.854784 378.410904,263.496306 Z M353.817281,264.640131 C350.419771,263.171335 348.850912,259.212928 350.319709,255.815417 C351.788046,252.419284 355.746453,250.849508 359.143964,252.317386 C362.541933,253.786642 364.110332,257.745967 362.641995,261.142559 C361.173198,264.540529 357.214791,266.109387 353.817281,264.640131 Z" id="Shape"></path>
        </g>
    </g>
</svg>