<?xml version="1.0" encoding="UTF-8"?>
<svg width="45px" height="32px" viewBox="0 0 45 32" version="1.1" xmlns="http://www.w3.org/2000/svg" xmlns:xlink="http://www.w3.org/1999/xlink">
    <!-- Generator: Sketch 51.1 (57501) - http://www.bohemiancoding.com/sketch -->
    <title>Group 2</title>
    <desc>Created with Sketch.</desc>
    <defs></defs>
    <g id="Page-1" stroke="none" stroke-width="1" fill="none" fill-rule="evenodd">
        <g id="Artboard" transform="translate(-255.000000, -243.000000)" fill="#000000" fill-rule="nonzero">
            <g id="Group-2" transform="translate(255.000000, 243.000000)">
                <path d="M41.8125,0.28125 L3.1875,0.28125 C1.546875,0.28125 0.234375,1.59375 0.234375,3.234375 L0.234375,28.640625 C0.234375,30.28125 1.546875,31.59375 3.1875,31.59375 L41.8125,31.59375 C43.453125,31.59375 44.765625,30.28125 44.765625,28.640625 L44.765625,3.234375 C44.765625,1.59375 43.453125,0.28125 41.8125,0.28125 Z M41.296875,28.125 L3.703125,28.125 L3.703125,3.75 L41.25,3.75 L41.25,28.125 L41.296875,28.125 Z" id="Shape"></path>
                <path d="M9.609375,11.203125 L35.4375,11.203125 C36.421875,11.203125 37.171875,10.40625 37.171875,9.46875 C37.171875,8.484375 36.375,7.734375 35.4375,7.734375 L9.609375,7.734375 C8.625,7.734375 7.875,8.53125 7.875,9.46875 C7.828125,10.453125 8.625,11.203125 9.609375,11.203125 Z" id="Shape"></path>
                <path d="M9.609375,17.671875 L35.4375,17.671875 C36.421875,17.671875 37.171875,16.875 37.171875,15.9375 C37.171875,15 36.375,14.203125 35.4375,14.203125 L9.609375,14.203125 C8.625,14.203125 7.875,15 7.875,15.9375 C7.875,16.875 8.625,17.671875 9.609375,17.671875 Z" id="Shape"></path>
                <path d="M9.609375,24.140625 L26.71875,24.140625 C27.703125,24.140625 28.453125,23.34375 28.453125,22.40625 C28.453125,21.421875 27.65625,20.671875 26.71875,20.671875 L9.609375,20.671875 C8.625,20.671875 7.875,21.46875 7.875,22.40625 C7.828125,23.34375 8.625,24.140625 9.609375,24.140625 Z" id="Shape"></path>
            </g>
        </g>
    </g>
</svg>