<?xml version="1.0" encoding="UTF-8"?>
<svg width="45px" height="46px" viewBox="0 0 45 46" version="1.1" xmlns="http://www.w3.org/2000/svg" xmlns:xlink="http://www.w3.org/1999/xlink">
    <!-- Generator: Sketch 51.1 (57501) - http://www.bohemiancoding.com/sketch -->
    <title>Group</title>
    <desc>Created with Sketch.</desc>
    <defs></defs>
    <g id="Page-1" stroke="none" stroke-width="1" fill="none" fill-rule="evenodd">
        <g id="Artboard" transform="translate(-422.000000, -236.000000)" fill="#000000" fill-rule="nonzero">
            <g id="Group" transform="translate(422.000000, 236.000000)">
                <path d="M19.0887097,25.5483871 C19.016129,25.6209677 18.9435484,25.6209677 18.8709677,25.6209677 L3.55645161,25.6209677 C3.26612903,25.6209677 3.0483871,25.4032258 3.0483871,25.1129032 C3.0483871,24.8225806 3.26612903,24.6048387 3.55645161,24.6048387 L18.8709677,24.6048387 C19.1612903,24.6048387 19.3790323,24.8225806 19.3790323,25.1129032 C21.0483871,22.4274194 23.6612903,20.3951613 26.6370968,19.3064516 L26.6370968,8.05645161 C26.6370968,6.67741935 25.5483871,5.58870968 24.1693548,5.58870968 L21.5564516,5.58870968 C21.5564516,5.80645161 21.5564516,5.9516129 21.5564516,6.16935484 L21.5564516,7.40322581 C21.5564516,9.14516129 20.1774194,10.5241935 18.4354839,10.5241935 L8.49193548,10.5241935 C6.75,10.5241935 5.37096774,9.14516129 5.37096774,7.40322581 L5.37096774,6.09677419 C5.37096774,5.87903226 5.37096774,5.73387097 5.37096774,5.51612903 L2.83064516,5.51612903 C1.4516129,5.51612903 0.362903226,6.60483871 0.362903226,7.98387097 L0.362903226,37.7419355 C0.362903226,39.1209677 1.4516129,40.2096774 2.83064516,40.2096774 L19.3790323,40.2096774 C18,38.0322581 17.2016129,35.4193548 17.2016129,32.6612903 C17.2016129,30.1209677 17.8548387,27.6532258 19.0887097,25.5483871 Z M3.55645161,12.9919355 L23.4435484,12.9919355 C23.733871,12.9919355 23.9516129,13.2096774 23.9516129,13.5 C23.9516129,13.7903226 23.733871,14.0080645 23.4435484,14.0080645 L3.55645161,14.0080645 C3.26612903,14.0080645 3.0483871,13.7903226 3.0483871,13.5 C3.0483871,13.2096774 3.26612903,12.9919355 3.55645161,12.9919355 Z M3.55645161,18.7258065 L23.4435484,18.7258065 C23.733871,18.7258065 23.9516129,18.9435484 23.9516129,19.233871 C23.9516129,19.5241935 23.733871,19.7419355 23.4435484,19.7419355 L3.55645161,19.7419355 C3.26612903,19.7419355 3.0483871,19.5241935 3.0483871,19.233871 C3.0483871,19.016129 3.26612903,18.7258065 3.55645161,18.7258065 Z M16.3306452,37.1612903 L3.55645161,37.1612903 C3.26612903,37.1612903 3.0483871,36.9435484 3.0483871,36.6532258 C3.0483871,36.3629032 3.26612903,36.1451613 3.55645161,36.1451613 L16.2580645,36.1451613 C16.5483871,36.1451613 16.766129,36.3629032 16.766129,36.6532258 C16.8387097,36.8709677 16.6209677,37.1612903 16.3306452,37.1612903 Z M16.6935484,31.3548387 L3.55645161,31.3548387 C3.26612903,31.3548387 3.0483871,31.1370968 3.0483871,30.8467742 C3.0483871,30.5564516 3.26612903,30.3387097 3.55645161,30.3387097 L16.6935484,30.3387097 C16.983871,30.3387097 17.2016129,30.5564516 17.2016129,30.8467742 C17.2016129,31.1370968 16.983871,31.3548387 16.6935484,31.3548387 Z" id="Shape"></path>
                <path d="M8.49193548,9.43548387 L18.5806452,9.43548387 C19.7419355,9.43548387 20.6129032,8.49193548 20.6129032,7.40322581 L20.6129032,6.09677419 C20.6129032,4.20967742 19.0887097,2.68548387 17.2016129,2.68548387 C17.2016129,2.83064516 17.2741935,3.0483871 17.2741935,3.19354839 C17.2741935,5.22580645 15.6048387,6.96774194 13.5,6.96774194 C11.4677419,6.96774194 9.72580645,5.2983871 9.72580645,3.19354839 C9.72580645,3.0483871 9.72580645,2.83064516 9.7983871,2.68548387 C7.91129032,2.68548387 6.38709677,4.20967742 6.38709677,6.09677419 L6.38709677,7.33064516 C6.45967742,8.49193548 7.33064516,9.43548387 8.49193548,9.43548387 Z" id="Shape"></path>
                <path d="M13.5,5.87903226 C14.9516129,5.87903226 16.1854839,4.64516129 16.1854839,3.19354839 C16.1854839,1.74193548 14.9516129,0.508064516 13.5,0.508064516 C12.0483871,0.508064516 10.8145161,1.74193548 10.8145161,3.19354839 C10.8145161,4.71774194 12.0483871,5.87903226 13.5,5.87903226 Z" id="Shape"></path>
                <path d="M31.4274194,31.2096774 C30.6290323,31.2096774 29.9032258,31.8629032 29.9032258,32.733871 C29.9032258,33.5322581 30.5564516,34.2580645 31.4274194,34.2580645 C32.2258065,34.2580645 32.9516129,33.6048387 32.9516129,32.733871 C32.9516129,31.8629032 32.2983871,31.2096774 31.4274194,31.2096774 Z" id="Shape"></path>
                <path d="M31.4274194,19.5241935 C24.1693548,19.5241935 18.2177419,25.4758065 18.2177419,32.733871 C18.2177419,39.9919355 24.1693548,45.9435484 31.4274194,45.9435484 C38.6854839,45.9435484 44.6370968,39.9919355 44.6370968,32.733871 C44.6370968,25.4032258 38.7580645,19.5241935 31.4274194,19.5241935 Z M43.1854839,30.6290323 C43.2580645,30.9193548 43.0403226,31.2096774 42.75,31.2096774 L41.2983871,31.5 C40.9354839,31.5 40.7177419,31.3548387 40.7177419,31.0645161 C40.6451613,30.7741935 40.7903226,30.483871 41.0806452,30.483871 L42.5322581,30.1935484 C42.8225806,30.1935484 43.1129032,30.3387097 43.1854839,30.6290323 Z M39.7741935,27.2903226 L41.0080645,26.5645161 C41.2983871,26.4193548 41.5887097,26.4919355 41.733871,26.7822581 C41.8790323,27 41.8064516,27.3629032 41.516129,27.5080645 L40.2822581,28.233871 C40.0645161,28.3790323 39.7016129,28.3064516 39.5564516,28.016129 C39.4112903,27.7258065 39.483871,27.4354839 39.7741935,27.2903226 Z M37.3790323,24.75 L38.3225806,23.5887097 C38.5403226,23.3709677 38.8306452,23.2983871 39.0483871,23.516129 C39.266129,23.733871 39.3387097,24.0241935 39.1209677,24.2419355 L38.1774194,25.4032258 C37.9596774,25.6209677 37.6693548,25.6935484 37.4516129,25.4758065 C37.233871,25.3306452 37.233871,25.0403226 37.3790323,24.75 Z M34.3306452,23.2258065 L34.8387097,21.8467742 C34.9112903,21.5564516 35.2741935,21.4112903 35.4919355,21.5564516 C35.7822581,21.6290323 35.9274194,21.9919355 35.7822581,22.2096774 L35.2741935,23.5887097 C35.2016129,23.8790323 34.8387097,24.0241935 34.6209677,23.8790323 C34.4032258,23.8064516 34.2580645,23.516129 34.3306452,23.2258065 Z M30.9193548,21.3387097 C30.9193548,21.0483871 31.1370968,20.8306452 31.4274194,20.8306452 C31.7177419,20.8306452 31.9354839,21.0483871 31.9354839,21.3387097 L31.9354839,22.7903226 C31.9354839,23.0806452 31.7177419,23.2983871 31.4274194,23.2983871 C31.1370968,23.2983871 30.9193548,23.0806452 30.9193548,22.7903226 L30.9193548,21.3387097 Z M20.3225806,30.1935484 L21.7741935,30.483871 C22.0645161,30.5564516 22.2822581,30.7741935 22.2096774,31.0645161 C22.1370968,31.3548387 21.9919355,31.5 21.6290323,31.5 L20.1774194,31.2096774 C19.8870968,31.1370968 19.6693548,30.8467742 19.7419355,30.6290323 C19.8145161,30.3387097 20.0322581,30.1935484 20.3225806,30.1935484 Z M19.7419355,34.766129 C19.6693548,34.4758065 19.8870968,34.1854839 20.1774194,34.1854839 L21.6290323,33.8951613 C21.9193548,33.8225806 22.2096774,34.0403226 22.2096774,34.3306452 C22.2822581,34.6209677 22.0645161,34.9112903 21.7741935,34.9112903 L20.3225806,35.2016129 C20.1048387,35.2741935 19.8145161,35.0564516 19.7419355,34.766129 Z M23.1532258,38.1048387 L21.8467742,38.8306452 C21.5564516,38.9758065 21.266129,38.9032258 21.1209677,38.6129032 C20.9758065,38.3225806 21.0483871,38.0322581 21.3387097,37.8870968 L22.6451613,37.1612903 C22.9354839,37.016129 23.2258065,37.0887097 23.3709677,37.3790323 C23.516129,37.6693548 23.3709677,37.9596774 23.1532258,38.1048387 Z M23.2983871,28.016129 C23.1532258,28.233871 22.8629032,28.3790323 22.5725806,28.233871 L21.266129,27.5080645 C20.9758065,27.3629032 20.9032258,27 21.0483871,26.7822581 C21.1935484,26.4919355 21.483871,26.4193548 21.7741935,26.5645161 L23.0806452,27.2903226 C23.3709677,27.4354839 23.516129,27.7258065 23.2983871,28.016129 Z M25.4758065,40.6451613 L24.5322581,41.8064516 C24.3870968,42.0241935 24.0241935,42.0241935 23.8064516,41.8790323 C23.5887097,41.6612903 23.516129,41.3709677 23.733871,41.1532258 L24.6774194,39.9193548 C24.8951613,39.7016129 25.1854839,39.6290323 25.4032258,39.8467742 C25.6209677,40.0645161 25.6935484,40.4274194 25.4758065,40.6451613 Z M25.4032258,25.5483871 C25.1854839,25.6935484 24.8225806,25.6935484 24.6774194,25.4758065 L23.733871,24.3145161 C23.516129,24.0967742 23.5887097,23.733871 23.8064516,23.5887097 C24.0241935,23.3709677 24.3870968,23.4435484 24.5322581,23.6612903 L25.4758065,24.8225806 C25.6935484,25.0403226 25.6209677,25.3306452 25.4032258,25.5483871 Z M28.5967742,42.1693548 L28.0887097,43.5483871 C28.016129,43.8387097 27.6532258,43.983871 27.4354839,43.8387097 C27.1451613,43.766129 27,43.4032258 27.1451613,43.1854839 L27.6532258,41.8064516 C27.7258065,41.516129 28.0887097,41.3709677 28.3064516,41.516129 C28.5241935,41.5887097 28.6693548,41.9516129 28.5967742,42.1693548 Z M28.233871,23.8790323 C28.016129,23.9516129 27.6532258,23.8790323 27.5806452,23.5887097 L27.0725806,22.2096774 C27,21.9193548 27.1451613,21.6290323 27.3629032,21.5564516 C27.6532258,21.483871 27.9435484,21.6290323 28.016129,21.8467742 L28.5241935,23.2258065 C28.6693548,23.516129 28.5241935,23.8064516 28.233871,23.8790323 Z M32.0080645,44.0564516 C32.0080645,44.3467742 31.7903226,44.5645161 31.5,44.5645161 C31.2096774,44.5645161 30.9919355,44.3467742 30.9919355,44.0564516 L30.9919355,42.6048387 C30.9919355,42.3145161 31.2096774,42.0967742 31.5,42.0967742 C31.7903226,42.0967742 32.0080645,42.3145161 32.0080645,42.6048387 L32.0080645,44.0564516 Z M35.4919355,43.9112903 C35.2016129,43.983871 34.9112903,43.8387097 34.8387097,43.6209677 L34.3306452,42.2419355 C34.2580645,41.9516129 34.4032258,41.6612903 34.6209677,41.5887097 C34.9112903,41.516129 35.2016129,41.5887097 35.2741935,41.8790323 L35.7822581,43.2580645 C35.9274194,43.4758065 35.7822581,43.766129 35.4919355,43.9112903 Z M39.1209677,41.8064516 C38.9032258,41.9516129 38.5403226,41.9516129 38.3951613,41.733871 L37.3790323,40.6451613 C37.1612903,40.4274194 37.233871,40.0645161 37.4516129,39.9193548 C37.6693548,39.7016129 38.0322581,39.7741935 38.1774194,39.9919355 L39.1209677,41.1532258 C39.3387097,41.2983871 39.3387097,41.6612903 39.1209677,41.8064516 Z M38.9032258,33.2419355 L33.9677419,33.2419355 C33.75,34.4032258 32.6612903,35.2741935 31.4274194,35.2741935 C30.0483871,35.2741935 28.8870968,34.1129032 28.8870968,32.733871 C28.8870968,31.5 29.7580645,30.483871 30.9193548,30.266129 L30.9193548,25.3306452 C30.9193548,25.0403226 31.1370968,24.8225806 31.4274194,24.8225806 C31.7177419,24.8225806 31.9354839,25.0403226 31.9354839,25.3306452 L31.9354839,30.266129 C32.9516129,30.483871 33.6774194,31.2822581 33.8951613,32.2258065 L38.8306452,32.2258065 C39.1209677,32.2258065 39.3387097,32.4435484 39.3387097,32.733871 C39.4112903,33.0241935 39.1935484,33.2419355 38.9032258,33.2419355 Z M41.733871,38.6854839 C41.5887097,38.9032258 41.2983871,39.0483871 41.0080645,38.9032258 L39.7741935,38.1774194 C39.483871,38.0322581 39.4112903,37.6693548 39.5564516,37.4516129 C39.7016129,37.1612903 40.0645161,37.0887097 40.2822581,37.233871 L41.516129,37.9596774 C41.8064516,38.1048387 41.8790323,38.3951613 41.733871,38.6854839 Z M42.5322581,35.2016129 L41.0806452,34.9112903 C40.7903226,34.8387097 40.5725806,34.6209677 40.6451613,34.3306452 C40.7177419,34.0403226 40.9354839,33.8225806 41.2258065,33.8951613 L42.6774194,34.1854839 C42.9677419,34.2580645 43.1854839,34.4758065 43.1129032,34.766129 C43.1129032,35.0564516 42.8225806,35.2741935 42.5322581,35.2016129 Z" id="Shape"></path>
            </g>
        </g>
    </g>
</svg>