<?xml version="1.0" encoding="UTF-8"?>
<svg width="90px" height="90px" viewBox="0 0 90 90" version="1.1" xmlns="http://www.w3.org/2000/svg" xmlns:xlink="http://www.w3.org/1999/xlink">
    <!-- Generator: Sketch 51.1 (57501) - http://www.bohemiancoding.com/sketch -->
    <title>Group 4</title>
    <desc>Created with Sketch.</desc>
    <defs></defs>
    <g id="Page-1" stroke="none" stroke-width="1" fill="none" fill-rule="evenodd">
        <g id="Artboard" transform="translate(-235.000000, -353.000000)" fill="#000000" fill-rule="nonzero">
            <g id="Group-4" transform="translate(235.000000, 353.000000)">
                <path d="M45,0 C20.2,0 0,20.1 0,45 C0,69.9 20.2,90 45,90 C69.8,90 90,69.9 90,45 C90,20.1 69.8,0 45,0 Z M45,21.5 C52.2,21.5 58.1,27.4 58.1,34.6 C58.1,41.8 52.2,47.7 45,47.7 C37.8,47.7 31.9,41.8 31.9,34.6 C31.9,27.4 37.8,21.5 45,21.5 Z M45,82.9 C32.8,82.9 21.9,77.1 14.9,68.1 C20.6,57.4 32,50.1 45,50.1 C58,50.1 69.4,57.4 75.1,68.1 C68.2,77.1 57.2,82.9 45,82.9 Z" id="Shape"></path>
            </g>
        </g>
    </g>
</svg>